# xmcd
#
# Track frame offsets:
#	150
#	17877
#	34524
#	47862
#	59954
#	74678
#	87401
#	101589
#	113137
#	127952
#	162423
#
# Disc length: 2359 seconds
#
# Revision: 0
# Processed by: cddbd v1.4PL0 Copyright (c) Steve Scherf et al.
# Submitted via: audiograbber 1.82.02
#
DISCID=9e09350b
DTITLE=The Blues Brothers - The Blues Brothers
DYEAR=1900
DGENRE=
TTITLE0=She Caught The Katy
TTITLE1=Peter Gunn Them 
TTITLE2=Gimme Some Lovin'
TTITLE3=Shake Your Tailfeather
TTITLE4=Everybody Needs Somebody To Love
TTITLE5=The Old Landmark
TTITLE6=Think
TTITLE7=Theme From Rawhide
TTITLE8=Minne The Moocher
TTITLE9=Sweet Home Chicago
TTITLE10=Jailhouse Rock
EXTD=
EXTT0=
EXTT1=
EXTT2=
EXTT3=
EXTT4=
EXTT5=
EXTT6=
EXTT7=
EXTT8=
EXTT9=
EXTT10=
PLAYORDER=
